

<svg width="286" height="285" viewBox="0 0 286 285" fill="none" xmlns="http://www.w3.org/2000/svg">
<path d="M107.743 266.421L108.467 263.152L118.836 265.451L120.433 258.246L112.349 256.453L113.074 253.185L121.158 254.977L123.526 244.292L127.533 245.181L122.118 269.608L107.743 266.421Z" fill="#8e8e8e"/>
<path d="M89.7193 259.59L97.0408 245.422C97.9113 243.738 98.1297 242.243 97.6963 240.939C97.2415 239.623 96.2252 238.558 94.6475 237.742C93.0483 236.916 91.5913 236.703 90.2764 237.104C88.9402 237.495 87.8369 238.532 86.9665 240.216L79.6449 254.384L75.999 252.5L83.2875 238.396C84.224 236.584 85.4117 235.252 86.8507 234.402C88.2897 233.552 89.8299 233.159 91.4713 233.224C93.1128 233.289 94.733 233.734 96.3322 234.561C97.9313 235.387 99.232 236.451 100.234 237.752C101.215 239.043 101.765 240.515 101.882 242.17C102 243.825 101.59 245.558 100.654 247.37L93.3652 261.474L89.7193 259.59Z" fill="#8e8e8e"/>
<path d="M74.2616 223.965L67.909 218.378L70.0964 215.891L79.5306 224.189L63.0067 242.976L59.925 240.266L74.2616 223.965Z" fill="#8e8e8e"/>
<path d="M59.662 208.608L54.5548 201.864L57.1952 199.864L64.78 209.88L44.8336 224.985L42.3561 221.713L59.662 208.608Z" fill="#8e8e8e"/>
<path d="M33.3653 185.128L36.5236 183.724L42.531 197.246L39.3727 198.649L33.3653 185.128Z" fill="#8e8e8e"/>
<path d="M42.4208 160.215C42.6873 161.874 42.6427 163.412 42.2872 164.831C41.908 166.253 41.2461 167.429 40.3016 168.358C39.3571 169.288 38.174 169.867 36.7522 170.095L36.0556 165.759C37.1067 165.493 37.9168 164.937 38.486 164.092C39.0513 163.224 39.2255 162.114 39.0085 160.763C38.7839 159.365 38.2771 158.329 37.488 157.653C36.6751 156.982 35.7356 156.731 34.6692 156.903C33.8399 157.036 33.2045 157.393 32.7631 157.975C32.318 158.532 32.0122 159.201 31.8459 159.982C31.6757 160.738 31.5275 161.783 31.4014 163.116C31.2337 164.796 31.0185 166.179 30.7556 167.267C30.4653 168.334 29.9151 169.298 29.1052 170.157C28.2953 171.016 27.1202 171.57 25.5799 171.817C24.1581 172.046 22.857 171.89 21.6765 171.351C20.4959 170.811 19.5185 169.947 18.7442 168.759C17.97 167.571 17.4477 166.135 17.1774 164.453C16.7929 162.06 17.0831 160.008 18.0479 158.297C18.9853 156.566 20.4833 155.451 22.5419 154.95L23.2614 159.428C22.3724 159.644 21.6708 160.194 21.1566 161.079C20.6424 161.964 20.4881 163.046 20.6937 164.326C20.8802 165.487 21.3287 166.387 22.0391 167.026C22.7496 167.666 23.6616 167.896 24.7753 167.717C25.5336 167.595 26.1254 167.269 26.5507 166.739C26.9485 166.189 27.2324 165.536 27.4026 164.779C27.5727 164.023 27.7247 163.002 27.8585 161.716C28.046 160.009 28.2831 158.609 28.5696 157.518C28.8523 156.403 29.4105 155.414 30.2442 154.551C31.0503 153.668 32.2353 153.101 33.7993 152.849C35.0552 152.648 36.2952 152.801 37.5193 153.309C38.7396 153.794 39.7981 154.632 40.6946 155.825C41.5637 156.998 42.1391 158.462 42.4208 160.215Z" fill="#8e8e8e"/>
<path d="M17.2109 123.649L20.5439 123.966L19.9141 130.596L41.489 132.645L41.1009 136.731L19.526 134.682L18.8927 141.348L15.5598 141.031L17.2109 123.649Z" fill="#8e8e8e"/>
<path d="M44.654 100.968L40.8864 110.743L45.009 114.261L43.4684 118.258L23.3126 100.883L25.0216 96.4487L51.625 97.0956L50.0713 101.127L44.654 100.968ZM41.1157 100.839L28.8027 100.452L38.1767 108.464L41.1157 100.839Z" fill="#8e8e8e"/>
<path d="M45.5168 82.257C43.605 80.728 42.2423 78.916 41.4287 76.8209C40.63 74.707 40.4161 72.5537 40.7868 70.361C41.1538 68.1345 42.0644 66.1123 43.5184 64.2942C45.1823 62.2137 47.1742 60.7798 49.4942 59.9923C51.8105 59.1711 54.1981 59.1446 56.657 59.9126L53.5765 63.7643C52.1409 63.4459 50.8104 63.5342 49.5848 64.0291C48.3592 64.524 47.2742 65.3619 46.3298 66.5427C45.2955 67.836 44.6642 69.221 44.4357 70.6978C44.2073 72.1746 44.4043 73.6382 45.0267 75.0887C45.6641 76.5204 46.7044 77.8134 48.1476 78.9676C49.5908 80.1219 51.0808 80.8525 52.6176 81.1597C54.1694 81.4481 55.6499 81.326 57.0591 80.7936C58.4496 80.2462 59.662 79.3258 60.6963 78.0326C61.6407 76.8518 62.2196 75.6092 62.4331 74.3048C62.6465 73.0004 62.4402 71.6829 61.8141 70.3524L64.8945 66.5007C66.1842 68.7307 66.683 71.0658 66.391 73.5059C66.114 75.9272 65.1435 78.1781 63.4796 80.2586C62.0106 82.0954 60.2473 83.4356 58.1897 84.2792C56.1133 85.1079 53.9563 85.3649 51.7186 85.0504C49.4958 84.7171 47.4286 83.786 45.5168 82.257Z" fill="#8e8e8e"/>
<path d="M89.1146 57.0991L74.7859 53.3819L81.1432 62.5979L77.765 64.9282L63.5581 44.3329L66.9364 42.0026L73.4163 51.3964L74.9374 36.4834L79.175 33.5603L77.3393 50.0461L93.53 54.0534L89.1146 57.0991Z" fill="#8e8e8e"/>
<path d="M143.729 15.6833L139.603 41.4511L134.998 42.0503L127.342 23.9509L124.252 43.4486L119.688 44.0789L109.422 20.1475L113.741 19.5854L121.511 39.1221L124.451 18.1918L129.021 17.5972L136.812 37.0222L139.373 16.2501L143.729 15.6833Z" fill="#8e8e8e"/>
<path d="M162.777 21.7217L161.447 28.9443L169.944 30.5091L169.338 33.8017L160.84 32.2369L159.452 39.7781L169.011 41.5385L168.405 44.8311L154.809 42.3275L159.347 17.6858L172.942 20.1895L172.336 23.4821L162.777 21.7217Z" fill="#8e8e8e"/>
<path d="M195.242 41.4688C196.363 42.2487 197.103 43.3684 197.461 44.828C197.82 46.2876 197.688 47.6933 197.066 49.045C196.534 50.2005 195.747 51.1066 194.705 51.7631C193.695 52.4079 192.498 52.7419 191.113 52.7652C189.739 52.7667 188.3 52.4212 186.795 51.7289L177.704 47.5448L188.164 24.8163L196.83 28.8048C198.378 29.5172 199.588 30.3908 200.459 31.4258C201.33 32.4608 201.843 33.5556 201.999 34.7104C202.164 35.8434 201.996 36.9549 201.494 38.045C200.892 39.3531 200.042 40.2826 198.943 40.8336C197.844 41.3846 196.61 41.5963 195.242 41.4688ZM187.497 36.0814L192.108 38.2035C193.329 38.7654 194.403 38.9293 195.33 38.6953C196.288 38.4496 197.009 37.8034 197.49 36.7569C197.962 35.7323 197.979 34.7759 197.542 33.888C197.137 32.9883 196.324 32.2575 195.104 31.6956L190.492 29.5735L187.497 36.0814ZM187.868 48.537C189.132 49.119 190.265 49.2703 191.265 48.991C192.266 48.7116 193.017 48.0269 193.518 46.9368C194.03 45.8249 194.055 44.7664 193.593 43.7611C193.131 42.7559 192.268 41.9623 191.003 41.3803L186.098 39.1227L182.832 46.2192L187.868 48.537Z" fill="#8e8e8e"/>
<path d="M237.79 59.2265C239.532 61.2417 240.664 63.3402 241.187 65.522C241.743 67.7063 241.648 69.8348 240.902 71.9075C240.19 73.9827 238.871 75.8523 236.947 77.5162C235.023 79.1802 232.991 80.2068 230.853 80.5961C228.731 81.0035 226.629 80.7744 224.548 79.9087C222.501 79.0455 220.606 77.6063 218.863 75.5911L213.518 69.4095L232.445 53.0449L237.79 59.2265ZM221.396 73.4013C223.311 75.6162 225.378 76.7956 227.596 76.9396C229.815 77.0836 232.014 76.2138 234.192 74.3301C236.389 72.4307 237.594 70.3573 237.808 68.1098C238.023 65.8623 237.172 63.6312 235.257 61.4163L232.596 58.3391L218.735 70.3241L221.396 73.4013Z" fill="#8e8e8e"/>
<path d="M253.373 87.7785L246.758 90.9686L250.511 98.7509L247.496 100.205L243.743 92.4229L236.836 95.7538L241.058 104.509L238.042 105.963L232.037 93.5115L254.606 82.6276L260.611 95.0793L257.595 96.5336L253.373 87.7785Z" fill="#8e8e8e"/>
<path d="M270.076 131.468L243.73 126.981L242.83 122.315L265.61 108.315L266.442 112.627L247.415 123.85L269.258 127.226L270.076 131.468Z" fill="#8e8e8e"/>
<path d="M266.734 149.754L259.407 149.253L258.818 157.873L255.477 157.645L256.066 149.025L248.416 148.502L247.754 158.199L244.413 157.971L245.356 144.179L270.354 145.888L269.411 159.679L266.071 159.451L266.734 149.754Z" fill="#8e8e8e"/>
<path d="M244.556 172.386L242.187 180.507L239.007 179.58L242.526 167.519L266.545 174.527L265.395 178.466L244.556 172.386Z" fill="#8e8e8e"/>
<path d="M230.189 196.7C231.401 194.713 232.98 193.16 234.927 192.041C236.881 190.956 238.988 190.428 241.248 190.456C243.515 190.517 245.694 191.185 247.784 192.46C249.875 193.734 251.456 195.358 252.529 197.334C253.589 199.329 254.074 201.438 253.984 203.66C253.903 205.915 253.256 208.036 252.044 210.024C250.82 212.032 249.23 213.579 247.276 214.664C245.329 215.782 243.232 216.317 240.985 216.268C238.738 216.219 236.57 215.558 234.479 214.284C232.389 213.009 230.797 211.378 229.704 209.391C228.632 207.416 228.136 205.301 228.218 203.046C228.308 200.824 228.965 198.709 230.189 196.7ZM233.232 198.556C232.37 199.969 231.919 201.423 231.88 202.917C231.861 204.424 232.259 205.846 233.072 207.186C233.894 208.558 235.094 209.725 236.672 210.687C238.25 211.649 239.827 212.175 241.402 212.264C242.966 212.374 244.402 212.069 245.712 211.35C247.022 210.631 248.108 209.564 248.97 208.15C249.832 206.736 250.283 205.282 250.322 203.788C250.362 202.295 249.981 200.868 249.179 199.508C248.366 198.169 247.17 197.018 245.592 196.056C244.014 195.094 242.433 194.552 240.849 194.429C239.273 194.34 237.82 194.649 236.49 195.356C235.18 196.075 234.094 197.142 233.232 198.556Z" fill="#8e8e8e"/>
<path d="M216.063 239.258C215.214 238.31 214.636 237.217 214.329 235.976C214.023 234.736 214.121 233.407 214.623 231.99C215.141 230.59 216.169 229.202 217.705 227.824L221.083 224.796L214.305 217.237L217.361 214.497L234.064 233.126L227.631 238.894C226.202 240.175 224.771 241.007 223.34 241.388C221.907 241.802 220.572 241.806 219.337 241.399C218.083 241.008 216.992 240.294 216.063 239.258ZM219.94 230.317C218.779 231.358 218.145 232.394 218.038 233.425C217.946 234.474 218.333 235.481 219.199 236.446C221.025 238.483 223.091 238.468 225.396 236.401L228.773 233.373L223.318 227.288L219.94 230.317Z" fill="#8e8e8e"/>
<path d="M203.287 252.206L199.854 245.714L192.216 249.754L190.651 246.795L198.288 242.755L194.703 235.977L186.111 240.521L184.545 237.562L196.765 231.098L208.481 253.246L196.261 259.71L194.695 256.751L203.287 252.206Z" fill="#8e8e8e"/>
<path d="M162.935 244.253L170.886 252.627L173.93 251.89L171.577 242.163L175.566 241.198L181.449 265.516L173.051 267.548C171.185 267.999 169.531 268.054 168.09 267.711C166.626 267.374 165.446 266.733 164.551 265.789C163.633 264.851 163.01 263.705 162.683 262.352C162.299 260.766 162.416 259.207 163.033 257.674C163.632 256.171 164.832 254.955 166.632 254.026L158.176 245.405L162.935 244.253ZM174.701 255.074L170.292 256.141C168.799 256.502 167.769 257.146 167.204 258.073C166.614 259.006 166.472 260.102 166.777 261.362C167.082 262.621 167.692 263.511 168.608 264.03C169.529 264.573 170.748 264.66 172.264 264.294L176.673 263.227L174.701 255.074Z" fill="#8e8e8e"/>
</svg>
